<?xml version="1.0" encoding="UTF-8" standalone="no"?>
<!-- Created with Inkscape (http://www.inkscape.org/) -->

<svg
   width="32"
   height="32"
   viewBox="0 0 8.4666665 8.4666666"
   version="1.1"
   id="svg1"
   inkscape:version="1.4.2 (ebf0e940, 2025-05-08)"
   sodipodi:docname="favicon 32x32.svg"
   xmlns:inkscape="http://www.inkscape.org/namespaces/inkscape"
   xmlns:sodipodi="http://sodipodi.sourceforge.net/DTD/sodipodi-0.dtd"
   xmlns="http://www.w3.org/2000/svg"
   xmlns:svg="http://www.w3.org/2000/svg">
  <sodipodi:namedview
     id="namedview1"
     pagecolor="#ffffff"
     bordercolor="#999999"
     borderopacity="1"
     inkscape:showpageshadow="2"
     inkscape:pageopacity="0"
     inkscape:pagecheckerboard="0"
     inkscape:deskcolor="#d1d1d1"
     inkscape:document-units="mm"
     inkscape:zoom="25.993239"
     inkscape:cx="24.621787"
     inkscape:cy="14.503772"
     inkscape:window-width="2560"
     inkscape:window-height="1387"
     inkscape:window-x="0"
     inkscape:window-y="25"
     inkscape:window-maximized="0"
     inkscape:current-layer="layer1"
     inkscape:export-bgcolor="#ffffff00" />
  <defs
     id="defs1">
    <clipPath
       clipPathUnits="userSpaceOnUse"
       id="clipPath20">
      <path
         d="M 0,256 H 750 V 0 H 0 Z"
         transform="translate(-156.3327,-60.377599)"
         id="path20" />
    </clipPath>
    <clipPath
       clipPathUnits="userSpaceOnUse"
       id="clipPath22">
      <path
         d="M 0,256 H 750 V 0 H 0 Z"
         transform="translate(-143.4991,-156.5)"
         id="path22" />
    </clipPath>
  </defs>
  <g
     inkscape:label="Calque 1"
     inkscape:groupmode="layer"
     id="layer1">
    <path
       id="path19"
       d="m 0,0 h -76.665 c -16.385,0 -29.668,13.283 -29.668,29.667 v 75.288 c 0,16.385 13.283,29.667 29.668,29.667 H 0 c 16.385,0 29.667,-13.282 29.667,-29.667 V 29.667 C 29.667,13.283 16.385,0 0,0"
       style="fill:#669966;fill-opacity:1;fill-rule:nonzero;stroke:none"
       transform="matrix(0.06214271,0,0,-0.06214271,6.6101779,8.4258412)"
       clip-path="url(#clipPath20)" />
    <path
       id="path21"
       d="m 0,0 c 5,-3 -24.011,14.505 -24.999,15 -0.988,0.495 -39.152,-21.85 -39,-23 0.152,-1.15 -0.665888,-39.224672 -0.151,-41.452 0.876776,-1.502552 37.71,-26.308 38.858,-26.308 1.817,0.496 35.815336,22.824448 39.221888,26.308 C 14.264444,-51.428987 14.001,-10 14.001,-10 c 1.881323,1.5556594 -38.306,-23.54 -39,-24 -0.922,-0.611 -28.354655,17.903103 -21,13"
       style="fill:none;stroke:#ffffff;stroke-width:9.85225513;stroke-linecap:butt;stroke-linejoin:miter;stroke-miterlimit:10;stroke-dasharray:none;stroke-opacity:1"
       transform="matrix(0.06214271,0,0,-0.06214271,5.8126634,2.4525345)"
       clip-path="url(#clipPath22)"
       inkscape:label="path21"
       sodipodi:nodetypes="csscccccc" />
  </g>
</svg>
